<svg xmlns="http://www.w3.org/2000/svg" width="302" height="115" viewBox="0 0 302 115"><g stroke="#4D4D4D" stroke-width="4" stroke-miterlimit="10"><path fill="#FFF" stroke-linecap="round" stroke-linejoin="round" d="M260.5 35.5s14 .1 21.9 8.1l14.2 14.2c2.6 2.6 3.6 7.7 0 11.3-3.6 3.6-8.7 2.6-11.3 0L271 55.5v48c0 3.6-2.9 8-8 8s-8-4.4-8-8v-24c0-2.2-1.8-4-4-4s-4 1.8-4 4v24c0 3.6-2.9 8-8 8s-8-4.4-8-8v-48l-14.3 13.7c-2.6 2.6-7.7 3.6-11.3 0-3.6-3.6-2.6-8.7 0-11.3l14.2-14.2c8-8 21.9-8.1 21.9-8.1"/><path fill="none" stroke-linejoin="round" d="M271 95.5h-16M231 95.5h16"/><path fill="#FFF" stroke-linecap="round" stroke-linejoin="round" d="M267 18.9c0 8.5-5.3 20.6-16 20.6s-16-12-16-20.6c0-8.5 7.2-15.4 16-15.4s16 6.9 16 15.4z"/><path fill="none" stroke-linecap="round" stroke-linejoin="round" d="M235 18.9s4.2-5.1 16-5.1 16 5.1 16 5.1"/><path fill="none" stroke-linejoin="round" d="M211 52.2l11.3 11.3M291 52.2l-11.3 11.3"/><path fill="none" stroke-linecap="round" stroke-linejoin="round" d="M227 38.7v-9.2c0-3.3 2.7-6 6-6h2.5M275 38.7v-9.2c0-3.3-2.7-6-6-6h-2.5"/><g fill="none"><circle stroke-linecap="round" stroke-linejoin="round" cx="251" cy="56" r="10.8"/><path stroke-linejoin="round" d="M251 56v11"/><path d="M260.3 50.6c-1.9 3.2-5.3 5.4-9.3 5.4s-7.4-2.2-9.3-5.4"/></g></g><g stroke="#E0504C" stroke-width="2" stroke-linejoin="round" stroke-miterlimit="10"><circle fill="#E29F9F" stroke-linecap="round" cx="186.5" cy="30.1" r="12.9"/><circle fill="#E29F9F" stroke-linecap="round" cx="145.5" cy="30.1" r="12.9"/><path fill="none" d="M165.7 30.1h-20.2l14-19h20.3z"/><path fill="none" stroke-linecap="round" d="M171 4h6l9 26"/><path fill="none" d="M165.5 29.8l-7-22.7"/><path fill="none" stroke-linecap="round" d="M154.5 7.1h8"/></g><g stroke="#39B54A" stroke-width="2" stroke-miterlimit="10"><circle fill="#B4D67F" cx="99.5" cy="31.6" r="29"/><path fill="none" d="M99 78V12M80 37l19.1 19L118 37"/><path fill="none" d="M84.3 28.7l14.8 14.8 14.6-14.8"/><path fill="none" d="M89.5 20l9.5 9.6 9.5-9.6"/></g><g fill="#8AC7DD" stroke="#27689E" stroke-width="2" stroke-linecap="round" stroke-linejoin="round" stroke-miterlimit="10"><path d="M5.1 25c-1.5 1.5-2.3 3.6-2.3 5.8C2.9 42 14.1 42 14.1 42h32.1l20-20H34.1s-2.4 0-5-1.1c-.1 0-14.6-5.2-24 4.1z"/><path d="M17.5 32.4c.7-.9 1.1-2.1 1.1-3.3 0-3.8-3.1-7-7-7-2.6 0-4.8 1.1-6.4 2.9l20-20c1.6-1.7 3.9-2.8 6.4-2.8 3.8 0 7 3.1 7 7 0 1.7-.7 3.2-1.9 4.2l-19.2 19z"/><path d="M15.1 29.4c0-1.6-1.4-2.8-3-2.8-2 0-3.6 1.6-3.6 3.6 0 2.5 2 4.5 4.4 4.5 1.8 0 3.4-.9 4.5-2.2"/></g></svg>